<?xml version="1.0" standalone="no"?>
<!DOCTYPE svg PUBLIC "-//W3C//DTD SVG 20010904//EN"
 "http://www.w3.org/TR/2001/REC-SVG-20010904/DTD/svg10.dtd">
<svg version="1.0" xmlns="http://www.w3.org/2000/svg"
 width="300.000000pt" height="300.000000pt" viewBox="0 0 300.000000 300.000000"
 preserveAspectRatio="xMidYMid meet">
<metadata>
Created by potrace 1.14, written by Peter Selinger 2001-2017
</metadata>
<g transform="translate(0.000000,300.000000) scale(0.100000,-0.100000)"
fill="#000000" stroke="none">
<path d="M0 1500 l0 -1500 1500 0 1500 0 0 1500 0 1500 -1500 0 -1500 0 0
-1500z m1392 703 c90 -120 169 -219 177 -221 12 -4 13 28 8 210 l-7 215 111 8
c61 4 114 3 118 -2 4 -4 5 -188 2 -408 l-6 -400 -101 -3 -101 -3 -164 216
c-90 118 -167 215 -172 215 -5 0 -5 -97 -1 -215 l7 -216 -119 3 -119 3 2 45
c1 25 2 206 3 402 l1 357 67 4 c37 2 82 4 99 5 32 2 39 -6 195 -215z m596
-778 c62 -28 142 -100 142 -129 0 -17 -89 -133 -109 -141 -8 -3 -28 7 -45 24
-117 113 -292 63 -327 -93 -26 -116 27 -221 123 -247 46 -12 125 -7 170 10 27
10 28 11 21 73 -4 35 -8 81 -8 102 l0 40 119 -1 120 -1 1 -221 c2 -158 -1
-221 -9 -221 -6 0 -38 7 -71 15 -54 12 -66 12 -115 -3 -38 -11 -91 -17 -170
-17 -109 0 -119 2 -182 32 -127 60 -206 167 -229 310 -30 186 60 381 210 457
73 38 115 46 212 42 67 -3 99 -9 147 -31z m-835 0 c92 -19 130 -45 161 -107
42 -84 33 -163 -27 -234 l-27 -32 26 -17 c14 -9 37 -42 51 -72 59 -129 -6
-283 -139 -329 -46 -16 -85 -19 -285 -19 -154 0 -236 4 -243 11 -8 8 -8 66 0
210 7 131 8 266 2 394 -5 107 -7 198 -5 203 8 14 413 8 486 -8z"/>
<path d="M904 1256 c-3 -7 -4 -38 -2 -67 l3 -54 55 -3 c68 -4 126 12 141 39
17 33 2 69 -36 85 -45 19 -154 19 -161 0z"/>
<path d="M905 948 c-3 -8 -5 -46 -3 -84 l3 -69 87 0 c77 0 90 3 110 22 29 29
28 87 -1 117 -18 17 -36 22 -106 25 -67 2 -86 0 -90 -11z"/>
</g>
</svg>
